{"glyphs":{":":{"x_min":0,"x_max":292,"ha":292,"o":"m 146 328 q 166 328 179 314 q 193 300 193 281 q 193 261 179 247 q 165 233 146 233 q 126 233 112 247 q 98 261 98 281 q 98 300 112 314 q 126 328 146 328 z m 146 70 q 166 70 179 56 q 193 42 193 23 q 193 3 179 -11 q 165 -25 146 -25 q 126 -25 112 -11 q 98 3 98 23 q 98 42 112 56 q 126 70 146 70 z"},"$":{"x_min":0,"x_max":458,"ha":458,"o":"m 210 538 l 227 538 l 227 501 q 287 500 338 466 l 323 364 l 306 364 q 307 372 307 380 q 307 423 286 450 q 265 478 227 483 l 227 302 q 304 250 334 212 q 364 175 364 131 q 364 79 326 38 q 289 -2 227 -5 l 227 -108 l 210 -108 l 210 -5 q 141 -3 87 35 l 109 147 l 126 147 q 125 134 125 122 q 125 27 210 15 l 210 232 q 150 271 126 305 q 101 339 101 383 q 101 431 129 461 q 157 492 210 501 z m 210 314 l 210 483 q 180 479 164 459 q 147 439 147 409 q 147 379 161 357 q 176 335 210 314 z m 227 219 l 227 15 q 264 16 286 45 q 309 73 309 109 q 309 171 227 219 z"},"?":{"x_min":0,"x_max":313,"ha":313,"o":"m 140 150 l 140 119 l 121 119 l 121 230 q 121 259 135 283 q 149 307 193 342 q 232 374 244 394 q 256 414 256 436 q 256 471 227 493 q 198 514 151 514 q 122 514 102 506 q 82 499 55 476 l 55 499 q 95 558 157 558 q 210 558 247 512 q 283 467 283 401 q 283 359 269 329 q 254 299 208 264 q 166 232 153 208 q 140 183 140 150 z m 139 83 q 159 83 172 69 q 186 56 186 36 q 186 16 172 2 q 159 -12 139 -12 q 120 -12 105 2 q 91 16 91 36 q 91 56 105 69 q 119 83 139 83 z"},"<":{"x_min":0,"x_max":667,"ha":667,"o":"m 596 81 l 71 302 l 71 340 l 596 561 l 596 514 l 128 321 l 596 128 z"},"'":{"x_min":0,"x_max":180,"ha":180,"o":"m 126 517 l 99 359 l 81 359 l 54 517 q 48 547 48 572 q 48 592 60 605 q 71 618 90 618 q 109 618 120 605 q 132 592 132 572 q 132 549 126 517 z"},"=":{"x_min":0,"x_max":667,"ha":667,"o":"m 71 414 l 71 457 l 596 457 l 596 414 z m 71 188 l 71 231 l 596 231 l 596 188 z"},"a":{"x_min":0,"x_max":365,"ha":365,"o":"m 131 -11 q 89 -11 60 16 q 30 44 30 83 q 30 120 55 144 q 81 168 160 190 q 209 204 226 214 l 226 240 q 226 279 205 302 q 183 326 147 326 q 114 326 89 306 q 63 285 53 250 l 35 255 q 46 304 82 334 q 118 364 166 364 q 223 364 259 329 q 294 295 294 234 l 294 82 q 294 50 298 38 q 302 27 314 27 q 322 27 327 33 q 332 40 338 61 l 355 61 q 353 28 334 8 q 316 -11 286 -11 q 243 -11 226 39 q 200 10 179 0 q 159 -11 131 -11 z m 226 72 l 226 192 q 211 186 182 176 q 129 158 114 140 q 99 122 99 92 q 99 65 115 46 q 131 27 153 27 q 173 27 195 40 q 217 53 226 72 z"},"L":{"x_min":0,"x_max":500,"ha":500,"o":"m 476 125 l 493 125 l 458 0 l 43 0 l 43 17 q 78 17 93 39 q 108 61 108 113 l 108 473 q 108 520 94 538 q 80 556 43 556 l 43 573 l 248 573 l 248 556 q 214 556 199 535 q 184 514 184 466 l 184 83 q 184 51 198 40 q 211 28 249 28 l 363 28 q 416 28 437 46 q 458 64 476 125 z"},"3":{"x_min":0,"x_max":458,"ha":458,"o":"m 120 291 l 120 308 q 296 339 296 453 q 296 495 268 524 q 240 553 198 553 q 169 553 144 537 q 120 521 106 493 l 90 500 q 104 540 140 563 q 177 587 224 587 q 284 587 323 550 q 363 514 363 459 q 363 417 337 382 q 311 347 261 326 l 261 324 q 321 309 354 267 q 388 225 388 166 q 388 87 338 38 q 288 -11 208 -11 q 164 -11 132 3 q 100 17 65 52 l 77 64 q 135 17 190 17 q 245 17 281 51 q 317 84 317 139 q 317 199 278 246 q 240 294 178 294 z"},";":{"x_min":0,"x_max":292,"ha":292,"o":"m 88 -172 l 88 -155 q 126 -136 142 -111 q 158 -85 158 -43 q 158 -32 155 -28 q 152 -25 140 -25 q 118 -25 103 -11 q 88 3 88 23 q 88 42 102 56 q 116 70 136 70 q 169 70 189 43 q 210 16 210 -26 q 210 -78 176 -119 q 142 -159 88 -172 z m 146 328 q 166 328 179 314 q 193 300 193 281 q 193 261 179 247 q 165 233 146 233 q 126 233 112 247 q 98 261 98 281 q 98 300 112 314 q 126 328 146 328 z"},"J":{"x_min":0,"x_max":323,"ha":323,"o":"m 282 573 l 282 556 q 246 556 231 536 q 217 516 217 465 l 217 -64 q 217 -138 177 -180 q 138 -222 74 -222 q 12 -222 -20 -171 l -6 -161 q 14 -187 46 -187 q 88 -187 115 -150 q 141 -113 141 -46 l 141 465 q 141 517 127 536 q 113 556 75 556 l 75 573 z"},"V":{"x_min":0,"x_max":594,"ha":594,"o":"m 580 573 l 580 555 q 517 555 476 444 l 307 -8 l 291 -8 l 114 457 q 89 521 71 538 q 53 555 19 556 l 19 573 l 227 573 l 227 556 q 177 556 177 518 q 177 505 183 489 l 323 119 l 456 476 q 464 499 464 516 q 464 556 413 556 l 413 573 z"},"\"":{"x_min":0,"x_max":408,"ha":408,"o":"m 320 517 l 293 359 l 275 359 l 248 517 q 242 549 242 572 q 242 592 254 605 q 265 618 284 618 q 303 618 314 605 q 326 592 326 572 q 326 547 320 517 z m 159 517 l 132 359 l 114 359 l 87 517 q 81 549 81 572 q 81 592 93 605 q 104 618 123 618 q 142 618 153 605 q 165 592 165 572 q 165 549 159 517 z"},"7":{"x_min":0,"x_max":458,"ha":458,"o":"m 50 445 l 33 445 l 64 592 l 81 592 q 86 579 94 576 q 101 573 113 573 l 429 573 l 429 553 l 232 -8 l 160 -8 l 382 517 l 131 517 q 105 517 90 504 q 76 491 50 445 z"},"S":{"x_min":0,"x_max":417,"ha":417,"o":"m 340 581 l 356 581 l 356 447 l 339 447 q 333 502 299 534 q 264 565 212 565 q 166 565 137 542 q 109 518 109 479 q 109 443 132 413 q 156 383 234 336 q 325 282 356 242 q 387 201 387 149 q 387 82 339 34 q 292 -14 224 -14 q 185 -14 125 7 q 100 16 93 16 q 79 16 71 -6 l 54 -6 l 54 149 l 71 149 q 71 85 113 46 q 154 8 209 8 q 261 8 293 36 q 324 63 324 110 q 324 145 298 176 q 272 208 190 258 q 124 300 101 324 q 79 348 68 376 q 57 405 57 439 q 57 505 100 546 q 144 587 213 587 q 251 587 296 572 q 317 565 325 565 q 332 565 334 568 q 337 571 340 581 z"},"}":{"x_min":0,"x_max":480,"ha":480,"o":"m 224 312 q 224 269 256 237 q 288 206 340 198 l 340 176 q 288 168 256 137 q 224 105 224 62 q 224 40 235 -3 q 245 -46 245 -83 q 245 -151 198 -203 q 150 -255 75 -269 l 71 -251 q 124 -239 153 -209 q 182 -180 182 -139 q 182 -116 171 -58 q 161 -2 161 17 q 161 71 197 115 q 233 160 300 187 q 233 214 197 259 q 161 303 161 357 q 161 376 171 432 q 182 490 182 513 q 182 554 153 583 q 124 613 71 625 l 75 643 q 150 629 198 577 q 245 525 245 457 q 245 416 235 377 q 224 332 224 312 z"},"Z":{"x_min":0,"x_max":563,"ha":563,"o":"m 515 138 l 532 138 l 511 0 l 31 0 l 31 15 l 408 545 l 161 545 q 107 545 83 531 q 59 516 47 475 l 31 475 l 40 573 l 506 573 l 506 555 l 131 28 l 347 28 q 418 28 457 53 q 496 79 515 138 z"},"x":{"x_min":0,"x_max":458,"ha":458,"o":"m 159 0 l 15 0 l 15 17 q 54 17 72 28 q 90 39 120 75 l 197 166 l 113 276 q 86 311 68 322 q 50 333 15 336 l 15 353 l 210 353 l 210 336 q 179 333 179 315 q 179 303 193 283 l 240 217 l 288 276 q 307 298 307 315 q 307 336 279 336 l 279 353 l 419 353 l 419 336 q 386 333 367 320 q 348 308 315 269 l 256 199 l 363 59 q 396 17 442 17 l 442 0 l 256 0 l 256 17 q 283 21 283 37 q 283 46 272 61 l 210 146 l 147 67 q 134 51 134 38 q 134 19 159 17 z"},")":{"x_min":0,"x_max":313,"ha":313,"o":"m 31 560 l 42 573 q 143 484 200 378 q 258 273 258 176 q 258 77 194 -38 q 130 -153 42 -223 l 31 -210 q 112 -123 148 -34 q 184 56 184 171 q 184 297 148 388 q 112 479 31 560 z"},"&":{"x_min":0,"x_max":615,"ha":615,"o":"m 103 415 q 103 472 141 509 q 180 546 239 546 q 287 546 320 515 q 354 485 354 442 q 354 369 251 315 q 311 263 398 157 q 440 229 440 277 q 440 304 431 314 q 422 325 398 326 l 398 343 l 561 343 l 561 326 q 523 326 509 315 q 496 305 485 288 q 474 271 458 230 q 436 171 413 137 q 469 67 491 47 q 514 27 530 27 q 547 27 569 47 l 582 36 q 548 -14 491 -14 q 467 -14 445 -2 q 422 11 389 49 q 375 65 368 72 q 297 -14 202 -14 q 135 -14 89 27 q 42 68 42 128 q 42 172 74 214 q 107 256 167 289 q 103 349 103 415 z m 152 447 q 152 421 175 389 q 198 356 236 327 q 302 365 302 435 q 302 471 281 494 q 260 517 226 517 q 194 517 173 497 q 152 478 152 447 z m 111 163 q 111 113 152 71 q 193 30 243 30 q 274 30 300 44 q 326 58 355 91 q 261 207 182 274 q 150 257 131 226 q 111 195 111 163 z"},"_":{"x_min":0,"x_max":500,"ha":500,"o":"m -9 -125 l -9 -75 l 509 -75 l 509 -125 z"},"v":{"x_min":0,"x_max":417,"ha":417,"o":"m 187 353 l 187 336 q 152 333 152 307 q 152 294 160 275 l 239 86 l 308 265 q 319 292 319 306 q 319 333 273 336 l 273 353 l 403 353 l 403 336 q 371 333 359 323 q 346 313 335 285 l 221 -8 l 204 -8 l 91 270 q 74 312 61 323 q 49 334 16 336 l 16 353 z"},"O":{"x_min":0,"x_max":729,"ha":729,"o":"m 59 289 q 59 417 147 502 q 235 587 366 587 q 494 587 582 500 q 670 414 670 289 q 670 162 581 74 q 492 -14 364 -14 q 236 -14 147 74 q 59 162 59 289 z m 147 288 q 147 163 207 85 q 266 8 363 8 q 460 8 521 87 q 582 166 582 284 q 582 411 522 488 q 463 565 368 565 q 268 565 207 489 q 147 414 147 288 z"},"(":{"x_min":0,"x_max":313,"ha":313,"o":"m 282 -210 l 272 -223 q 170 -133 113 -28 q 55 78 55 174 q 55 271 117 384 q 179 496 272 573 l 282 560 q 201 473 165 384 q 129 294 129 179 q 129 57 164 -33 q 199 -123 282 -210 z"},"C":{"x_min":0,"x_max":615,"ha":615,"o":"m 564 581 l 564 410 l 547 410 q 526 490 481 527 q 436 565 361 565 q 263 565 206 495 q 149 424 149 307 q 149 179 209 100 q 270 22 367 22 q 502 22 567 148 l 582 134 q 553 65 489 26 q 425 -14 343 -14 q 265 -14 199 22 q 133 59 97 123 q 61 188 61 271 q 61 408 145 497 q 229 587 357 587 q 400 587 466 572 q 503 563 517 563 q 539 563 548 581 z"},"W":{"x_min":0,"x_max":917,"ha":917,"o":"m 896 573 l 896 556 q 862 554 840 528 q 817 502 795 440 l 634 -8 l 616 -8 l 460 415 l 308 -8 l 292 -8 l 117 465 q 103 504 91 523 q 80 542 66 549 q 53 556 20 556 l 20 573 l 232 573 l 232 556 q 182 550 182 519 q 182 506 189 487 l 323 123 l 445 456 l 432 493 q 420 528 402 542 q 385 556 352 556 l 352 573 l 562 573 l 562 556 q 506 556 506 522 q 506 508 514 486 l 648 123 l 765 444 q 779 482 779 507 q 779 557 722 557 l 722 573 z"},"A":{"x_min":0,"x_max":594,"ha":594,"o":"m 370 0 l 370 17 q 419 17 419 51 q 419 61 415 73 l 363 232 l 178 232 l 139 117 q 125 74 125 54 q 125 18 170 17 l 170 0 l 22 0 l 22 17 q 54 21 71 38 q 89 55 107 107 l 265 579 l 324 579 l 490 86 q 505 42 521 30 q 537 17 572 17 l 572 0 z m 189 267 l 350 267 l 269 510 z"},"f":{"x_min":0,"x_max":260,"ha":260,"o":"m 235 327 l 147 327 l 147 70 q 147 42 159 30 q 171 17 198 17 l 215 17 l 215 0 l 14 0 l 14 17 l 30 17 q 57 17 68 28 q 79 38 79 64 l 79 327 l 30 327 l 30 344 q 64 358 79 368 l 79 438 q 79 521 120 574 q 161 628 231 628 q 293 628 331 599 l 297 510 l 280 510 q 280 518 280 525 q 280 564 262 585 q 245 607 213 607 q 182 607 165 585 q 147 563 147 524 l 147 353 l 235 353 z"},"Q":{"x_min":0,"x_max":719,"ha":719,"o":"m 675 -158 l 681 -174 q 639 -193 586 -193 q 542 -193 504 -181 q 467 -170 434 -146 q 401 -123 354 -67 q 312 -19 289 -7 q 191 13 120 97 q 50 180 50 287 q 50 367 90 437 q 131 507 200 547 q 270 587 354 587 q 484 587 574 500 q 663 414 663 287 q 663 181 594 97 q 525 14 418 -7 q 428 -15 455 -48 q 511 -118 548 -142 q 586 -167 623 -167 q 650 -167 675 -158 z m 575 282 q 575 414 515 489 q 455 565 360 565 q 259 565 198 489 q 138 413 138 286 q 138 163 198 85 q 258 8 354 8 q 454 8 515 83 q 575 158 575 282 z"},"w":{"x_min":0,"x_max":667,"ha":667,"o":"m 186 353 l 186 336 q 149 335 149 315 q 149 305 157 284 l 237 86 l 320 299 q 309 321 299 328 q 289 335 268 336 l 268 353 l 439 353 l 439 336 q 394 335 394 308 q 394 299 399 285 l 478 86 l 551 271 q 560 293 560 307 q 560 335 515 336 l 515 353 l 653 353 l 653 336 q 616 336 602 324 q 588 313 571 271 l 461 -8 l 444 -8 l 331 271 l 220 -8 l 203 -8 l 79 297 q 63 336 14 336 l 14 353 z"},"-":{"x_min":0,"x_max":313,"ha":313,"o":"m 58 195 l 254 195 l 254 157 l 58 157 z"},"E":{"x_min":0,"x_max":510,"ha":510,"o":"m 397 356 l 414 356 l 414 217 l 397 217 q 388 253 375 263 q 361 272 317 272 l 175 272 l 175 67 q 175 45 184 37 q 194 28 217 28 l 317 28 q 371 28 391 34 q 412 40 426 55 q 440 71 456 107 l 473 107 l 447 0 l 34 0 l 34 17 q 73 17 86 37 q 99 57 99 107 l 99 465 q 99 517 85 537 q 72 556 34 556 l 34 573 l 447 573 l 447 477 l 436 477 q 427 518 411 531 q 395 545 340 545 l 175 545 l 175 300 l 335 300 q 368 300 380 312 q 392 323 397 356 z"},"s":{"x_min":0,"x_max":313,"ha":313,"o":"m 262 364 l 262 255 l 242 255 q 237 296 213 320 q 188 344 154 344 q 127 344 111 331 q 95 318 95 296 q 95 274 110 258 q 125 242 175 219 q 239 189 260 163 q 281 136 281 98 q 281 54 248 21 q 214 -11 169 -11 q 146 -11 107 6 q 86 15 79 15 q 70 15 63 8 q 57 1 56 -9 l 39 -9 l 39 112 l 56 112 q 65 64 97 37 q 129 9 170 9 q 196 9 214 26 q 232 44 232 70 q 232 95 216 113 q 199 131 145 155 q 83 182 63 206 q 44 229 44 262 q 44 304 76 334 q 108 364 152 364 q 172 364 196 354 q 213 347 224 347 q 238 347 245 364 z"},">":{"x_min":0,"x_max":667,"ha":667,"o":"m 596 340 l 596 302 l 71 81 l 71 128 l 539 321 l 71 514 l 71 561 z"},"l":{"x_min":0,"x_max":240,"ha":240,"o":"m 211 17 l 220 17 l 220 0 l 23 0 l 23 17 l 41 17 q 68 17 78 31 q 88 45 88 84 l 88 551 q 88 578 77 589 q 66 599 40 599 l 17 599 l 17 616 l 139 628 l 156 628 l 156 67 q 156 38 167 28 q 179 17 211 17 z"},"8":{"x_min":0,"x_max":458,"ha":458,"o":"m 391 143 q 391 78 342 33 q 293 -11 222 -11 q 150 -11 104 28 q 58 67 58 129 q 58 176 87 213 q 117 250 183 287 q 130 314 102 355 q 74 396 74 445 q 74 508 117 547 q 160 587 228 587 q 292 587 334 550 q 377 512 377 456 q 377 374 278 319 q 391 241 391 143 z m 128 477 q 128 439 158 406 q 188 373 260 331 q 325 365 325 444 q 325 498 296 531 q 268 565 221 565 q 181 565 155 540 q 128 515 128 477 z m 114 141 q 114 88 147 53 q 180 17 229 17 q 273 17 303 45 q 332 73 332 116 q 332 201 201 270 q 114 229 114 141 z"},"\\":{"x_min":0,"x_max":500,"ha":500,"o":"m 81 595 l 127 595 l 419 -12 l 373 -12 z"},"e":{"x_min":0,"x_max":406,"ha":406,"o":"m 373 91 l 373 65 q 341 24 307 6 q 274 -11 227 -11 q 144 -11 90 41 q 36 93 36 173 q 36 253 88 309 q 139 364 214 364 q 275 364 321 322 q 367 281 367 223 l 367 216 l 107 216 l 107 211 q 107 152 125 109 q 143 66 177 42 q 211 17 248 17 q 283 17 307 31 q 332 46 373 91 z m 107 233 l 300 233 l 300 240 q 300 287 273 315 q 246 343 205 343 q 162 343 136 313 q 110 284 107 233 z"},"b":{"x_min":0,"x_max":448,"ha":448,"o":"m 113 628 l 130 628 l 130 311 q 152 335 184 350 q 216 364 249 364 q 318 364 365 314 q 413 264 413 191 q 413 105 349 51 q 285 -4 172 -4 q 128 -4 62 7 l 62 538 q 62 580 52 589 q 41 599 -1 599 l -1 616 z m 130 285 l 130 83 q 130 43 143 29 q 157 14 190 14 q 259 14 299 59 q 339 103 339 183 q 339 250 304 292 q 270 335 221 335 q 170 335 130 285 z"},"%":{"x_min":0,"x_max":750,"ha":750,"o":"m 222 426 q 222 489 203 525 q 184 561 152 561 q 119 561 100 525 q 82 489 82 422 q 82 361 101 326 q 120 291 152 291 q 184 291 203 327 q 222 363 222 426 z m 275 426 q 275 356 240 311 q 205 265 152 265 q 99 265 64 311 q 29 356 29 426 q 29 496 64 541 q 99 587 152 587 q 205 587 240 541 q 275 496 275 426 z m 566 587 l 600 587 l 184 0 l 150 0 z m 721 156 q 721 87 686 41 q 651 -5 598 -5 q 545 -5 510 41 q 475 86 475 156 q 475 226 510 271 q 545 317 598 317 q 651 317 686 271 q 721 225 721 156 z m 668 156 q 668 219 649 255 q 630 291 598 291 q 564 291 546 255 q 528 219 528 152 q 528 91 547 56 q 566 21 598 21 q 630 21 649 57 q 668 93 668 156 z"},"m":{"x_min":0,"x_max":719,"ha":719,"o":"m 147 364 l 147 290 l 149 290 q 171 324 205 344 q 240 364 275 364 q 313 364 344 343 q 374 321 386 284 q 443 364 517 364 q 569 364 603 332 q 637 300 637 244 l 637 66 q 637 37 650 27 q 663 17 697 17 l 697 0 l 509 0 l 509 17 q 547 17 558 30 q 569 42 569 85 l 569 253 q 569 287 548 307 q 528 326 492 326 q 437 326 392 258 l 392 68 q 392 38 405 28 q 417 17 451 17 l 451 0 l 265 0 l 265 17 q 305 17 315 30 q 324 42 324 85 l 324 249 q 324 284 303 305 q 282 326 249 326 q 220 326 193 308 q 165 289 147 258 l 147 65 q 147 38 160 27 q 173 16 207 16 l 207 0 l 19 0 l 19 17 q 58 17 69 29 q 79 42 79 74 l 79 284 q 79 312 68 324 q 56 336 30 336 l 8 336 l 8 353 l 130 364 z"},"#":{"x_min":0,"x_max":668,"ha":668,"o":"m 47 421 l 47 464 l 210 464 l 253 667 l 296 667 l 253 464 l 476 464 l 519 667 l 562 667 l 519 464 l 621 464 l 621 421 l 510 421 l 467 223 l 621 223 l 621 180 l 458 180 l 415 -23 l 372 -23 l 415 180 l 192 180 l 149 -23 l 106 -23 l 149 180 l 47 180 l 47 223 l 158 223 l 201 421 z m 467 421 l 244 421 l 201 223 l 424 223 z"},",":{"x_min":0,"x_max":292,"ha":292,"o":"m 88 -172 l 88 -155 q 127 -135 143 -110 q 158 -85 158 -43 q 158 -32 155 -28 q 152 -25 140 -25 q 118 -25 103 -11 q 88 3 88 23 q 88 42 102 56 q 116 70 136 70 q 169 70 189 43 q 210 16 210 -26 q 210 -78 176 -119 q 142 -159 88 -172 z"},"n":{"x_min":0,"x_max":458,"ha":458,"o":"m 137 364 l 137 293 q 199 364 265 364 q 316 364 351 329 q 385 294 385 237 l 385 77 q 385 41 397 29 q 409 17 445 17 l 445 0 l 256 0 l 256 17 q 291 17 304 26 q 317 35 317 61 l 317 246 q 317 283 295 305 q 272 327 238 327 q 188 327 137 258 l 137 85 q 137 41 149 29 q 160 17 197 17 l 197 0 l 10 0 l 10 17 q 50 17 60 30 q 69 43 69 85 l 69 284 q 69 316 58 326 q 46 336 10 336 l 10 353 l 120 364 z"},"h":{"x_min":0,"x_max":438,"ha":438,"o":"m 307 74 l 307 249 q 307 284 288 305 q 268 326 236 326 q 206 326 182 311 q 159 295 133 259 l 133 65 q 133 38 146 27 q 158 17 192 17 l 192 0 l 2 0 l 2 17 q 42 18 54 30 q 65 42 65 85 l 65 546 q 65 578 53 589 q 42 599 2 599 l 2 616 l 116 628 l 133 628 l 133 293 q 167 332 195 348 q 222 364 257 364 q 309 364 342 331 q 375 297 375 241 l 375 85 q 375 43 386 30 q 397 17 432 17 l 432 0 l 248 0 l 248 17 q 284 17 296 28 q 307 40 307 74 z"},"z":{"x_min":0,"x_max":365,"ha":365,"o":"m 39 353 l 336 353 l 336 336 l 111 17 l 221 17 q 277 17 302 39 q 327 60 328 108 l 345 108 l 336 0 l 30 0 l 30 17 l 255 336 l 156 336 q 110 336 81 313 q 52 290 47 250 l 30 250 z"},"B":{"x_min":0,"x_max":510,"ha":510,"o":"m 299 0 l 35 0 l 35 17 q 72 17 86 37 q 100 57 100 108 l 100 465 q 100 517 87 537 q 73 556 35 556 l 35 573 l 251 573 q 344 573 397 534 q 450 496 450 433 q 450 341 335 303 l 335 301 q 400 288 442 243 q 483 198 483 140 q 483 77 432 38 q 382 0 299 0 z m 176 551 l 176 308 l 235 308 q 297 308 333 341 q 370 373 370 428 q 370 486 334 519 q 298 551 233 551 z m 230 286 l 176 286 l 176 118 q 176 62 188 42 q 200 22 235 22 l 282 22 q 332 22 364 55 q 395 89 395 145 q 395 209 350 248 q 305 286 230 286 z"},"K":{"x_min":0,"x_max":615,"ha":615,"o":"m 39 0 l 39 17 q 77 17 90 37 q 104 58 104 108 l 104 465 q 104 517 91 536 q 77 556 39 556 l 39 573 l 244 573 l 244 556 q 208 556 194 536 q 180 515 180 465 l 180 292 l 367 476 q 397 506 397 524 q 397 549 361 556 l 361 573 l 577 573 l 577 556 l 549 556 q 523 556 490 539 q 456 521 428 493 l 250 317 l 487 77 q 522 41 541 30 q 560 20 594 17 l 594 0 l 458 0 l 180 281 l 180 108 q 180 58 194 37 q 207 17 244 17 l 244 0 z"},"R":{"x_min":0,"x_max":594,"ha":594,"o":"m 221 265 l 175 265 l 175 108 q 175 57 189 37 q 204 17 240 17 l 240 0 l 34 0 l 34 17 q 72 17 86 37 q 99 57 99 108 l 99 467 q 99 518 86 537 q 73 556 34 556 l 34 573 l 269 573 q 356 573 408 531 q 460 488 460 423 q 460 317 342 282 q 368 266 392 237 q 417 208 457 140 q 502 65 527 42 q 553 19 580 17 l 580 0 l 463 0 q 427 44 375 128 q 321 216 290 241 q 259 265 221 265 z m 235 551 l 175 551 l 175 289 l 245 289 q 308 289 344 325 q 380 361 380 421 q 380 479 340 515 q 300 551 235 551 z"},"T":{"x_min":0,"x_max":563,"ha":563,"o":"m 405 545 l 318 545 l 318 105 q 318 53 331 35 q 343 17 380 17 l 380 0 l 177 0 l 177 17 q 215 17 229 38 q 242 59 242 108 l 242 545 l 159 545 q 100 545 73 526 q 45 507 42 463 l 25 463 l 25 594 l 42 594 q 65 573 128 573 l 428 573 q 493 573 519 594 l 537 594 l 537 463 l 526 463 q 515 510 488 528 q 460 545 405 545 z"},"P":{"x_min":0,"x_max":500,"ha":500,"o":"m 38 573 l 247 573 q 350 573 409 527 q 469 482 469 410 q 469 339 417 301 q 365 262 267 262 q 229 262 179 268 l 179 108 q 179 56 193 37 q 207 17 244 17 l 244 0 l 38 0 l 38 17 q 75 17 89 38 q 103 58 103 106 l 103 465 q 103 516 89 536 q 75 556 38 556 z m 250 551 l 179 551 l 179 294 q 208 284 250 284 q 314 284 352 317 q 389 351 389 408 q 389 470 352 510 q 315 551 250 551 z"},"|":{"x_min":0,"x_max":496,"ha":496,"o":"m 226 -236 l 226 595 l 270 595 l 270 -236 z"},"t":{"x_min":0,"x_max":292,"ha":292,"o":"m 134 474 l 151 474 l 151 355 l 274 355 l 274 329 l 151 329 l 151 101 q 151 65 167 46 q 184 27 215 27 q 251 27 281 61 l 292 48 q 246 -11 185 -11 q 140 -11 111 18 q 83 46 83 92 l 83 329 l 16 329 l 16 346 q 89 383 134 474 z"},"M":{"x_min":0,"x_max":771,"ha":771,"o":"m 572 573 l 707 573 l 707 556 q 643 555 643 480 q 643 474 643 467 l 672 114 q 677 58 691 39 q 706 21 743 17 l 743 0 l 537 0 l 537 17 q 570 22 583 39 q 597 55 597 88 q 597 95 596 103 l 566 473 l 370 0 l 355 0 l 161 473 l 129 120 q 128 112 128 104 q 128 31 203 17 l 203 0 l 25 0 l 25 17 q 61 22 76 42 q 92 62 98 122 l 133 516 q 103 549 58 556 l 58 573 l 203 573 l 386 122 z"},"g":{"x_min":0,"x_max":417,"ha":417,"o":"m 291 360 l 405 360 l 405 320 l 311 320 q 351 271 351 217 q 351 163 312 122 q 273 80 219 77 q 181 75 142 52 q 104 29 104 11 q 104 -8 124 -18 q 145 -28 219 -41 q 302 -56 335 -68 q 367 -81 385 -103 q 404 -126 404 -155 q 404 -217 341 -260 q 277 -303 186 -303 q 108 -303 60 -273 q 12 -243 12 -195 q 12 -161 40 -135 q 67 -109 127 -84 l 127 -82 q 91 -74 70 -56 q 50 -39 50 -17 q 50 42 159 80 l 159 82 q 106 96 77 131 q 48 166 48 216 q 48 280 91 322 q 133 364 198 364 q 211 364 245 362 q 279 360 291 360 z m 112 223 q 112 166 136 130 q 160 95 199 95 q 240 95 263 130 q 287 164 287 223 q 287 277 263 311 q 239 344 200 344 q 161 344 136 311 q 112 277 112 223 z m 367 -186 q 367 -151 324 -132 q 280 -113 159 -92 q 56 -120 56 -176 q 56 -214 107 -240 q 158 -265 234 -265 q 293 -265 330 -243 q 367 -221 367 -186 z"},"j":{"x_min":0,"x_max":229,"ha":229,"o":"m 138 364 l 155 364 l 155 -56 q 155 -239 -30 -239 l -40 -239 l -40 -222 l -37 -222 q 29 -222 58 -186 q 87 -149 87 -66 l 87 291 q 87 319 73 327 q 60 336 20 336 l 20 353 z m 116 547 q 134 547 147 534 q 159 522 159 504 q 159 486 146 473 q 134 460 116 460 q 98 460 85 473 q 72 486 72 504 q 72 522 85 534 q 98 547 116 547 z"},"i":{"x_min":0,"x_max":229,"ha":229,"o":"m 132 364 l 149 364 l 149 66 q 149 37 162 27 q 174 17 208 17 l 208 0 l 14 0 l 14 17 q 57 17 69 27 q 81 36 81 66 l 81 283 q 81 315 70 326 q 59 336 14 336 l 14 353 z m 116 547 q 134 547 147 534 q 159 522 159 504 q 159 486 146 473 q 134 460 116 460 q 98 460 85 473 q 72 486 72 504 q 72 522 85 534 q 98 547 116 547 z"},"y":{"x_min":0,"x_max":417,"ha":417,"o":"m 186 353 l 186 336 q 156 332 156 305 q 156 295 161 282 l 246 82 l 308 269 q 315 292 315 306 q 315 334 280 336 l 280 353 l 405 353 l 405 336 q 376 336 358 317 q 339 297 324 253 l 183 -164 q 163 -224 131 -258 q 99 -293 66 -293 q 46 -293 22 -278 l 45 -217 q 63 -225 79 -225 q 111 -225 132 -205 q 152 -185 169 -138 l 215 -10 l 88 283 q 74 315 60 325 q 46 335 16 336 l 16 353 z"},"@":{"x_min":0,"x_max":921,"ha":921,"o":"m 531 150 l 529 152 q 473 79 429 46 q 386 13 345 13 q 302 13 276 44 q 250 74 250 125 q 250 198 292 277 q 334 355 402 411 q 469 467 519 467 q 556 467 575 451 q 594 436 604 399 l 606 399 l 617 455 l 683 464 l 584 120 q 579 102 579 87 q 579 41 624 41 q 670 41 722 88 q 774 134 804 206 q 834 277 834 357 q 834 497 746 582 q 657 668 514 668 q 394 668 298 606 q 202 544 146 432 q 91 320 91 194 q 91 88 141 -2 q 191 -93 278 -142 q 366 -192 478 -192 q 610 -192 719 -117 q 827 -42 872 80 l 899 80 q 851 -55 736 -136 q 621 -218 477 -218 q 291 -218 171 -95 q 52 28 52 220 q 52 351 113 459 q 173 568 280 631 q 387 693 514 693 q 671 693 764 601 q 858 509 858 354 q 858 264 822 184 q 786 105 725 56 q 664 8 600 8 q 519 8 519 77 q 519 87 531 150 z m 380 66 q 422 66 471 115 q 521 163 554 236 q 587 308 587 369 q 587 405 569 425 q 550 445 517 445 q 478 445 431 395 q 384 344 351 269 q 319 194 319 135 q 319 104 335 85 q 352 66 380 66 z"},".":{"x_min":0,"x_max":292,"ha":292,"o":"m 146 70 q 166 70 179 56 q 193 42 193 23 q 193 3 179 -11 q 165 -25 146 -25 q 126 -25 112 -11 q 98 3 98 23 q 98 42 112 56 q 126 70 146 70 z"},"p":{"x_min":0,"x_max":458,"ha":458,"o":"m 139 364 l 139 304 q 173 337 200 350 q 228 364 262 364 q 331 364 376 311 q 422 259 422 179 q 422 97 372 43 q 322 -11 246 -11 q 194 -11 139 31 l 139 -202 q 139 -238 152 -250 q 164 -261 198 -261 l 198 -278 l 9 -278 l 9 -261 q 45 -261 58 -251 q 71 -241 71 -212 l 71 281 q 71 316 60 326 q 49 336 9 336 l 9 353 l 122 364 z m 139 278 l 139 56 q 181 12 237 12 q 284 12 316 57 q 348 101 348 167 q 348 238 316 285 q 284 331 235 331 q 185 331 139 278 z"},"X":{"x_min":0,"x_max":615,"ha":615,"o":"m 482 494 l 340 311 l 486 112 q 525 58 547 40 q 569 22 600 17 l 600 0 l 370 0 l 370 17 q 414 18 414 57 q 414 83 393 111 l 292 250 l 182 107 q 156 74 156 51 q 156 21 201 17 l 201 0 l 18 0 l 18 17 q 49 17 71 31 q 93 46 122 83 l 273 276 l 135 467 q 99 516 74 536 q 50 556 18 556 l 18 573 l 238 573 l 238 556 q 196 556 196 526 q 196 510 211 490 l 320 339 l 427 474 q 452 506 452 527 q 452 556 406 556 l 406 573 l 589 573 l 589 556 q 554 556 533 545 q 513 534 482 494 z"},"*":{"x_min":0,"x_max":458,"ha":458,"o":"m 52 289 q 52 310 69 323 q 85 336 140 349 q 192 362 209 374 q 188 387 137 401 q 85 415 70 427 q 54 440 54 460 q 54 490 83 490 q 100 490 117 480 q 134 470 164 437 q 200 398 219 393 q 219 426 206 466 q 195 500 195 523 q 195 543 205 558 q 215 572 230 572 q 246 572 256 558 q 265 545 265 522 q 265 502 253 467 q 239 423 239 393 q 264 401 300 441 q 327 470 342 479 q 356 488 372 488 q 386 488 397 479 q 407 471 407 460 q 407 439 393 427 q 378 415 327 401 q 273 388 249 374 q 288 355 336 344 q 374 335 389 320 q 405 304 405 287 q 405 275 396 266 q 387 258 375 258 q 359 258 342 268 q 324 278 290 311 q 256 342 239 353 q 239 324 253 271 q 263 234 263 220 q 263 202 252 188 q 242 174 227 174 q 213 174 203 187 q 193 200 193 218 q 193 238 205 275 q 219 321 219 353 q 194 340 159 303 q 132 276 118 268 q 103 260 87 260 q 71 260 62 268 q 52 276 52 289 z"},"Y":{"x_min":0,"x_max":563,"ha":563,"o":"m 447 491 l 318 288 l 318 108 q 318 56 331 36 q 345 17 381 17 l 381 0 l 172 0 l 172 17 q 214 17 228 38 q 242 58 242 108 l 242 288 l 120 478 q 90 525 71 540 q 52 555 18 556 l 18 573 l 242 573 l 242 556 q 183 556 183 529 q 183 517 195 499 l 308 325 l 399 469 q 419 501 419 524 q 419 556 381 556 l 381 573 l 538 573 l 538 556 q 506 554 489 542 q 472 530 447 491 z"},"c":{"x_min":0,"x_max":385,"ha":385,"o":"m 359 364 l 359 239 l 342 239 q 331 288 299 316 q 267 344 223 344 q 170 344 137 303 q 104 262 104 197 q 104 125 143 72 q 183 19 237 19 q 273 19 308 39 q 344 58 369 93 l 369 67 q 312 -11 213 -11 q 134 -11 85 39 q 35 88 35 168 q 35 250 89 307 q 142 364 218 364 q 251 364 293 350 q 311 344 318 344 q 333 344 342 364 z"},"!":{"x_min":0,"x_max":292,"ha":292,"o":"m 185 496 l 155 138 l 139 138 l 113 496 q 110 542 110 554 q 110 577 121 591 q 132 605 149 605 q 167 605 178 591 q 190 577 190 554 q 190 542 187 512 z m 146 83 q 166 83 179 69 q 193 56 193 36 q 193 16 179 2 q 166 -12 146 -12 q 126 -12 112 2 q 98 17 98 36 q 98 55 112 69 q 126 83 146 83 z"},"/":{"x_min":0,"x_max":500,"ha":500,"o":"m 81 -12 l 373 595 l 419 595 l 127 -12 z"},"[":{"x_min":0,"x_max":260,"ha":260,"o":"m 68 -200 l 68 573 l 227 573 l 227 555 l 197 555 q 178 555 161 543 q 145 531 141 512 q 137 494 137 467 l 137 -94 q 137 -136 145 -151 q 152 -165 166 -174 q 180 -182 197 -182 l 227 -182 l 227 -200 z"},"6":{"x_min":0,"x_max":458,"ha":458,"o":"m 411 588 l 411 571 q 283 548 207 466 q 130 384 119 259 q 187 322 260 322 q 328 322 372 276 q 416 230 416 159 q 416 87 365 38 q 313 -11 237 -11 q 153 -11 98 52 q 43 116 43 214 q 43 363 146 468 q 250 573 411 588 z m 347 141 q 347 203 315 240 q 283 278 230 278 q 172 278 119 229 l 119 222 q 119 126 154 71 q 189 15 247 15 q 291 15 319 51 q 347 86 347 141 z"},"r":{"x_min":0,"x_max":344,"ha":344,"o":"m 148 364 l 148 287 q 197 330 224 347 q 251 364 269 364 q 303 364 334 336 l 307 273 q 250 304 223 304 q 193 304 148 261 l 148 67 q 148 38 160 27 q 172 17 207 17 l 207 0 l 20 0 l 20 17 q 57 17 69 29 q 80 41 80 85 l 80 278 q 80 314 68 325 q 55 336 7 336 l 7 353 l 131 364 z"},"2":{"x_min":0,"x_max":458,"ha":458,"o":"m 104 41 l 386 41 l 386 0 l 58 0 l 58 20 q 192 158 248 243 q 303 328 303 400 q 303 461 275 497 q 247 532 198 532 q 155 532 126 505 q 98 477 93 428 l 76 428 q 77 463 98 503 q 120 543 154 565 q 188 587 228 587 q 289 587 331 541 q 373 495 373 427 q 373 349 312 261 q 250 173 104 41 z"},"{":{"x_min":0,"x_max":480,"ha":480,"o":"m 256 62 q 256 105 224 137 q 192 168 140 176 l 140 198 q 192 206 224 237 q 256 269 256 312 q 256 334 246 377 q 235 422 235 457 q 235 525 282 577 q 330 629 405 643 l 409 625 q 356 613 327 583 q 298 554 298 513 q 298 490 309 432 q 319 376 319 357 q 319 303 283 259 q 247 214 180 187 q 247 160 283 115 q 319 71 319 17 q 319 -2 309 -58 q 298 -116 298 -139 q 298 -180 327 -209 q 356 -239 409 -251 l 405 -269 q 330 -255 282 -203 q 235 -151 235 -83 q 235 -49 246 -3 q 256 41 256 62 z"},"9":{"x_min":0,"x_max":458,"ha":458,"o":"m 48 -10 l 48 7 q 171 23 252 109 q 332 195 341 319 q 273 256 199 256 q 131 256 87 302 q 43 348 43 418 q 43 490 95 538 q 146 587 223 587 q 307 587 362 524 q 416 460 416 363 q 416 213 311 109 q 207 4 48 -10 z m 112 436 q 112 374 144 336 q 177 299 230 299 q 288 299 341 353 q 341 450 306 506 q 271 561 213 561 q 168 561 140 526 q 112 491 112 436 z"}," ":{"x_min":0,"x_max":225,"ha":225,"o":""},"I":{"x_min":0,"x_max":260,"ha":260,"o":"m 233 573 l 233 556 q 196 556 182 536 q 168 516 168 465 l 168 108 q 168 57 182 37 q 196 17 233 17 l 233 0 l 27 0 l 27 17 q 64 17 78 37 q 92 56 92 108 l 92 465 q 92 518 78 537 q 65 556 27 556 l 27 573 z"},"H":{"x_min":0,"x_max":667,"ha":667,"o":"m 489 108 l 489 274 l 177 274 l 177 108 q 177 57 191 37 q 206 17 243 17 l 243 0 l 36 0 l 36 17 q 74 17 87 37 q 101 58 101 108 l 101 465 q 101 518 87 537 q 73 556 36 556 l 36 573 l 243 573 l 243 556 q 206 556 191 535 q 177 515 177 465 l 177 302 l 489 302 l 489 465 q 489 518 475 537 q 462 556 425 556 l 425 573 l 630 573 l 630 556 q 593 556 579 536 q 565 516 565 465 l 565 108 q 565 57 579 37 q 593 17 630 17 l 630 0 l 425 0 l 425 17 q 463 17 476 37 q 489 57 489 108 z"},"4":{"x_min":0,"x_max":458,"ha":458,"o":"m 443 189 l 302 189 l 302 -8 l 242 -8 l 242 189 l 6 189 l 6 206 l 285 587 l 302 587 l 302 235 l 443 235 z m 62 236 l 242 236 l 242 480 z"},"~":{"x_min":0,"x_max":667,"ha":667,"o":"m 95 253 l 72 253 l 72 257 q 72 316 106 355 q 140 393 193 393 q 231 393 346 345 q 451 302 483 302 q 521 302 544 325 q 567 349 572 392 l 595 392 q 593 330 560 291 q 526 252 473 252 q 436 252 318 299 q 214 341 185 341 q 110 341 95 253 z"},"D":{"x_min":0,"x_max":667,"ha":667,"o":"m 31 0 l 31 17 q 68 17 82 37 q 96 58 96 108 l 96 465 q 96 516 82 536 q 68 556 31 556 l 31 573 l 296 573 q 443 573 531 489 q 619 406 619 277 q 619 150 536 75 q 452 0 303 0 z m 281 551 l 172 551 l 172 128 q 172 67 187 44 q 201 22 245 22 l 304 22 q 410 22 470 90 q 531 158 531 276 q 531 401 465 476 q 398 551 281 551 z"},"^":{"x_min":0,"x_max":469,"ha":469,"o":"m 228 677 l 243 677 l 451 327 l 406 327 l 235 613 l 64 327 l 18 327 z"},"0":{"x_min":0,"x_max":458,"ha":458,"o":"m 427 288 q 427 200 401 133 q 376 66 329 27 q 282 -11 229 -11 q 175 -11 128 27 q 81 66 55 134 q 30 201 30 290 q 30 376 55 443 q 81 510 128 549 q 175 587 229 587 q 283 587 330 548 q 376 510 401 443 q 427 375 427 288 z m 351 288 q 351 417 320 489 q 288 561 229 561 q 170 561 138 489 q 106 416 106 288 q 106 159 138 87 q 170 15 229 15 q 288 15 319 86 q 351 157 351 288 z"},"F":{"x_min":0,"x_max":458,"ha":458,"o":"m 327 277 l 176 277 l 176 108 q 176 57 190 37 q 204 17 241 17 l 241 0 l 35 0 l 35 17 q 72 17 86 37 q 100 57 100 108 l 100 465 q 100 517 86 536 q 73 556 35 556 l 35 573 l 428 573 l 428 471 l 415 471 q 406 517 391 531 q 375 545 322 545 l 176 545 l 176 305 l 325 305 q 355 305 370 321 q 385 336 389 373 l 405 373 l 405 212 l 389 212 q 386 277 327 277 z"},"`":{"x_min":0,"x_max":333,"ha":333,"o":"m 89 628 l 144 628 l 209 428 l 190 428 z"},"k":{"x_min":0,"x_max":438,"ha":438,"o":"m 298 293 l 206 209 l 353 62 q 378 37 396 28 q 414 19 440 17 l 440 0 l 324 0 l 140 177 q 140 38 152 27 q 164 17 199 17 l 199 0 l 9 0 l 9 17 q 50 18 61 30 q 72 42 72 85 l 72 551 q 72 582 60 590 q 49 599 9 599 l 9 616 l 123 628 l 140 628 l 140 180 l 235 267 q 262 292 262 312 q 262 335 219 336 l 219 353 l 412 353 l 412 336 l 395 336 q 344 336 298 293 z"},"u":{"x_min":0,"x_max":458,"ha":458,"o":"m 368 364 l 385 364 l 385 67 q 385 38 397 27 q 410 17 446 17 l 446 0 l 317 -7 l 317 58 l 315 58 q 262 -11 191 -11 q 140 -11 108 23 q 75 57 75 108 l 75 289 q 75 316 62 326 q 48 336 12 336 l 12 353 l 126 364 l 143 364 l 143 111 q 143 74 165 52 q 187 31 223 31 q 274 31 317 89 l 317 280 q 317 316 306 326 q 294 335 248 336 l 248 353 z"},"]":{"x_min":0,"x_max":260,"ha":260,"o":"m 192 573 l 192 -200 l 33 -200 l 33 -182 l 63 -182 q 81 -182 97 -170 q 113 -159 118 -142 q 123 -125 123 -94 l 123 467 q 123 555 63 555 l 33 555 l 33 573 z"},"U":{"x_min":0,"x_max":667,"ha":667,"o":"m 488 120 l 488 465 q 488 515 474 535 q 461 555 427 556 l 427 573 l 629 573 l 629 556 q 592 556 578 536 q 564 516 564 465 l 564 108 q 564 58 578 37 q 592 17 629 17 l 629 0 l 488 0 l 488 80 q 407 -14 297 -14 q 206 -14 154 40 q 102 94 102 183 l 102 465 q 102 516 89 536 q 75 556 37 556 l 37 573 l 244 573 l 244 556 q 206 556 192 537 q 178 517 178 466 l 178 176 q 178 105 217 65 q 255 25 324 25 q 426 25 488 120 z"},"o":{"x_min":0,"x_max":458,"ha":458,"o":"m 423 176 q 423 96 367 42 q 312 -11 229 -11 q 146 -11 91 42 q 35 96 35 176 q 35 257 90 310 q 146 364 229 364 q 312 364 368 310 q 423 257 423 176 z m 349 176 q 349 251 317 298 q 285 344 229 344 q 173 344 141 299 q 109 253 109 176 q 109 100 141 54 q 173 9 229 9 q 285 9 317 55 q 349 101 349 176 z"},"N":{"x_min":0,"x_max":667,"ha":667,"o":"m 456 556 l 456 573 l 629 573 l 629 556 q 587 556 571 537 q 555 517 555 466 l 555 0 l 538 0 l 132 498 l 132 96 q 132 54 149 35 q 167 17 207 17 l 207 0 l 33 0 l 33 17 q 75 17 89 39 q 104 61 104 115 l 104 450 q 104 504 84 528 q 64 552 19 556 l 19 573 l 166 573 l 526 127 l 526 462 q 526 515 511 535 q 496 556 456 556 z"},"+":{"x_min":0,"x_max":667,"ha":667,"o":"m 71 298 l 71 341 l 312 341 l 312 582 l 355 582 l 355 341 l 596 341 l 596 298 l 355 298 l 355 57 l 312 57 l 312 298 z"},"G":{"x_min":0,"x_max":656,"ha":656,"o":"m 626 248 l 626 231 q 588 231 572 214 q 555 196 555 154 l 555 0 q 535 -5 480 -10 q 425 -14 395 -14 q 236 -14 148 64 q 59 142 59 270 q 59 359 98 431 q 137 503 206 545 q 276 587 354 587 q 401 587 456 570 q 491 560 510 560 q 534 560 542 579 l 560 579 l 560 410 l 544 410 q 534 480 480 523 q 426 565 354 565 q 263 565 205 492 q 147 420 147 305 q 147 179 214 96 q 281 13 383 13 q 479 13 479 74 l 479 136 q 479 189 465 210 q 451 231 416 231 l 394 231 l 394 248 z"},"q":{"x_min":0,"x_max":448,"ha":448,"o":"m 310 -211 l 310 17 q 260 -11 205 -11 q 127 -11 78 38 q 29 86 29 165 q 29 255 91 304 q 152 353 269 353 q 297 353 378 348 l 378 -210 q 378 -240 391 -251 q 403 -261 439 -261 l 439 -278 l 252 -278 l 252 -261 q 286 -261 298 -250 q 310 -240 310 -211 z m 310 39 l 310 323 q 286 328 263 328 q 189 328 146 286 q 103 244 103 172 q 103 106 138 61 q 173 16 232 16 q 269 16 310 39 z"},"d":{"x_min":0,"x_max":458,"ha":458,"o":"m 366 628 l 383 628 l 383 69 q 383 40 396 28 q 408 17 442 17 l 442 0 l 236 0 q 141 0 85 52 q 30 104 30 184 q 30 259 78 311 q 127 364 196 364 q 251 364 315 321 l 315 538 q 315 574 306 586 q 296 599 268 599 l 248 599 l 248 616 z m 315 70 l 315 283 q 294 311 267 327 q 239 343 212 343 q 164 343 134 303 q 104 263 104 199 q 104 117 145 66 q 186 16 259 16 q 289 16 302 29 q 315 42 315 70 z"},"1":{"x_min":0,"x_max":458,"ha":458,"o":"m 201 78 l 201 471 q 201 491 193 491 q 191 491 180 487 q 143 473 115 471 l 115 488 q 225 545 250 585 l 267 585 l 267 78 q 267 39 278 27 q 289 15 326 15 l 326 0 l 142 0 l 142 15 q 179 15 190 27 q 201 40 201 78 z"},"5":{"x_min":0,"x_max":458,"ha":458,"o":"m 371 519 l 156 519 l 150 316 q 174 319 195 319 q 278 319 327 273 q 376 228 376 159 q 376 86 326 37 q 276 -11 201 -11 q 106 -11 46 71 l 61 80 q 107 23 172 23 q 227 23 264 60 q 302 96 302 150 q 302 204 263 238 q 224 271 157 271 q 139 271 119 269 l 128 573 l 371 573 z"}}}
